<svg viewBox="0 0 25 24" fill="none" xmlns="http://www.w3.org/2000/svg" class="netfilm-icon-lg">
    <path
        d="M13.6667 12.3333L9 7.66667M9 7.66667L13.6667 3M9 7.66667H18.3333C19.571 7.66667 20.758 8.15833 21.6332 9.0335C22.5083 9.90867 23 11.0957 23 12.3333C23 13.571 22.5083 14.758 21.6332 15.6332C20.758 16.5083 19.571 17 18.3333 17H16"
        stroke="white" stroke-width="2.5" stroke-linecap="round" stroke-linejoin="round"></path>
    <path
        d="M4.50426 14.2727V23H2.65909V16.0241H2.60795L0.609375 17.277V15.6406L2.76989 14.2727H4.50426ZM10.0004 23.1918C9.2674 23.1889 8.63672 23.0085 8.10831 22.6506C7.58274 22.2926 7.17791 21.7741 6.89382 21.0952C6.61257 20.4162 6.47337 19.5994 6.47621 18.6449C6.47621 17.6932 6.61683 16.8821 6.89808 16.2116C7.18217 15.5412 7.587 15.0312 8.11257 14.6818C8.64098 14.3295 9.27024 14.1534 10.0004 14.1534C10.7305 14.1534 11.3583 14.3295 11.8839 14.6818C12.4123 15.0341 12.8185 15.5455 13.1026 16.2159C13.3867 16.8835 13.5273 17.6932 13.5245 18.6449C13.5245 19.6023 13.3825 20.4205 13.0984 21.0994C12.8171 21.7784 12.4137 22.2969 11.8881 22.6548C11.3626 23.0128 10.7333 23.1918 10.0004 23.1918ZM10.0004 21.6619C10.5004 21.6619 10.8995 21.4105 11.1978 20.9077C11.4961 20.4048 11.6438 19.6506 11.641 18.6449C11.641 17.983 11.5728 17.4318 11.4364 16.9915C11.3029 16.5511 11.1126 16.2202 10.8654 15.9986C10.6211 15.777 10.3327 15.6662 10.0004 15.6662C9.5032 15.6662 9.10547 15.9148 8.80717 16.4119C8.50888 16.9091 8.35831 17.6534 8.35547 18.6449C8.35547 19.3153 8.42223 19.875 8.55575 20.3239C8.69212 20.7699 8.88388 21.1051 9.13104 21.3295C9.3782 21.5511 9.66797 21.6619 10.0004 21.6619Z"
        fill="white"></path>
</svg>